<svg width="75" height="95" viewBox="0 0 75 95" fill="none" xmlns="http://www.w3.org/2000/svg">
<path d="M71.2149 1.39246C70.793 -0.0177445 68.9922 -0.478644 67.9688 0.579955C66.5235 1.99016 64.6876 3.54476 62.4297 4.99016C56.8555 8.55266 51.9527 9.29486 45.9917 10.5293C31.2457 13.5645 15.4797 16.4551 6.66367 30.1073C1.12457 38.6776 -0.496526 49.6503 2.35897 59.4193C3.27694 62.5599 4.68708 65.6263 6.69878 68.2005C4.47608 73.0677 2.71437 78.1458 1.47997 83.3335C0.987785 85.3452 0.597165 87.3882 0.245575 89.4702C-0.0708351 91.4468 -0.461456 93.6343 1.76117 94.689C2.53851 95.0757 3.52287 95.1108 4.30027 94.7241C5.64007 94.0171 6.06197 92.3257 6.31197 90.8452C7.37057 84.4624 8.81587 78.3572 11.2847 72.3612C14.7769 74.5487 18.9409 75.6424 23.0657 76.1346C26.4876 76.5213 29.9095 76.5213 33.3317 76.1346C48.4997 74.3729 62.4687 65.3766 69.1677 51.6186C76.6482 36.0676 76.1524 17.5845 71.2149 1.39246ZM69.4883 26.6155C69.3125 34.9397 67.5469 42.5605 64.3399 49.2245C58.6602 60.9005 46.5629 69.1545 32.7349 70.7755C31.2193 70.9512 29.6646 71.0567 28.1138 71.0567C26.6333 71.0567 25.149 70.9864 23.7036 70.8106C19.4341 70.3184 16.0474 69.1895 13.5436 67.4239C14.8483 64.8145 16.2936 62.3106 17.9186 59.877C25.8913 47.779 35.7306 40.725 41.6916 36.455C45.4299 33.7753 48.8166 31.7284 51.3908 30.248C52.3791 29.6855 52.7306 28.4121 52.0978 27.498C52.0626 27.4629 52.0275 27.4277 51.9923 27.3925C51.465 26.7558 50.6173 26.4746 49.8048 26.7207C49.7345 26.7558 49.6642 26.791 49.5939 26.8261C47.3712 27.8495 44.34 29.3652 40.9181 31.4472C35.379 34.7636 23.4921 42.0992 13.7231 56.0682C12.1372 58.326 10.7583 60.5838 9.52389 62.8065C8.74655 61.3963 8.07859 59.7713 7.54729 58.0096C5.11369 49.6854 6.48869 40.3726 11.2153 33.0716C14.4965 27.9935 19.0825 24.3607 25.6413 21.6066C31.8132 18.9972 38.9383 17.5519 45.8523 16.1378L47.1218 15.8917C47.6843 15.7863 48.2156 15.6808 48.7429 15.5753C54.2468 14.4464 59.4659 13.423 65.3559 9.64954C66.0981 9.19251 66.8012 8.69642 67.5082 8.16904C68.9223 14.3018 69.6293 20.618 69.4887 26.614L69.4883 26.6155Z" fill="black"/>
</svg>
